<svg width="865" height="350" viewBox="0 0 865 350" fill="none" xmlns="http://www.w3.org/2000/svg">
<rect width="865" height="350" fill="white"/>
<path opacity="0.95" d="M0 12C0 5.37259 5.37258 0 12 0H853C859.627 0 865 5.37258 865 12V338C865 344.627 859.627 350 853 350H12C5.37261 350 0 344.627 0 338V12Z" fill="white"/>
<mask id="mask0_41_2" style="mask-type:alpha" maskUnits="userSpaceOnUse" x="117" y="159" width="70" height="80">
<path d="M149.5 160.443C151.047 159.55 152.953 159.55 154.5 160.443L184.141 177.557C185.688 178.45 186.641 180.1 186.641 181.887V216.113C186.641 217.9 185.688 219.55 184.141 220.443L154.5 237.557C152.953 238.45 151.047 238.45 149.5 237.557L119.859 220.443C118.312 219.55 117.359 217.9 117.359 216.113V181.887C117.359 180.1 118.312 178.45 119.859 177.557L149.5 160.443Z" fill="#D9D9D9"/>
</mask>
<g mask="url(#mask0_41_2)">
<rect x="-80" y="-81" width="1024" height="512" rx="16" fill="url(#paint0_linear_41_2)" fill-opacity="0.85"/>
</g>
<mask id="mask1_41_2" style="mask-type:alpha" maskUnits="userSpaceOnUse" x="83" y="179" width="70" height="80">
<path d="M115.5 180.443C117.047 179.55 118.953 179.55 120.5 180.443L150.141 197.557C151.688 198.45 152.641 200.1 152.641 201.887V236.113C152.641 237.9 151.688 239.55 150.141 240.443L120.5 257.557C118.953 258.45 117.047 258.45 115.5 257.557L85.859 240.443C84.312 239.55 83.359 237.9 83.359 236.113V201.887C83.359 200.1 84.312 198.45 85.859 197.557L115.5 180.443Z" fill="#D9D9D9"/>
</mask>
<g mask="url(#mask1_41_2)">
<rect x="-80" y="-81" width="1024" height="512" rx="16" fill="url(#paint1_linear_41_2)" fill-opacity="0.75"/>
</g>
<mask id="mask2_41_2" style="mask-type:alpha" maskUnits="userSpaceOnUse" x="83" y="140" width="70" height="80">
<path d="M115.5 141.443C117.047 140.55 118.953 140.55 120.5 141.443L150.141 158.557C151.688 159.45 152.641 161.1 152.641 162.887V197.113C152.641 198.9 151.688 200.55 150.141 201.443L120.5 218.557C118.953 219.45 117.047 219.45 115.5 218.557L85.859 201.443C84.312 200.55 83.359 198.9 83.359 197.113V162.887C83.359 161.1 84.312 159.45 85.859 158.557L115.5 141.443Z" fill="#D9D9D9"/>
</mask>
<g mask="url(#mask2_41_2)">
<rect x="-80" y="-81" width="1024" height="512" rx="16" fill="url(#paint2_linear_41_2)" fill-opacity="0.85"/>
</g>
<mask id="mask3_41_2" style="mask-type:alpha" maskUnits="userSpaceOnUse" x="83" y="61" width="70" height="80">
<path d="M115.5 62.4434C117.047 61.5502 118.953 61.5502 120.5 62.4434L150.141 79.5566C151.688 80.4498 152.641 82.1004 152.641 83.8868V118.113C152.641 119.9 151.688 121.55 150.141 122.443L120.5 139.557C118.953 140.45 117.047 140.45 115.5 139.557L85.859 122.443C84.312 121.55 83.359 119.9 83.359 118.113V83.8867C83.359 82.1004 84.312 80.4498 85.859 79.5566L115.5 62.4434Z" fill="#D9D9D9"/>
</mask>
<g mask="url(#mask3_41_2)">
<rect x="-80" y="-81" width="1024" height="512" rx="16" fill="url(#paint3_linear_41_2)" fill-opacity="0.85"/>
</g>
<mask id="mask4_41_2" style="mask-type:alpha" maskUnits="userSpaceOnUse" x="117" y="120" width="70" height="80">
<path d="M149.5 121.443C151.047 120.55 152.953 120.55 154.5 121.443L184.141 138.557C185.688 139.45 186.641 141.1 186.641 142.887V177.113C186.641 178.9 185.688 180.55 184.141 181.443L154.5 198.557C152.953 199.45 151.047 199.45 149.5 198.557L119.859 181.443C118.312 180.55 117.359 178.9 117.359 177.113V142.887C117.359 141.1 118.312 139.45 119.859 138.557L149.5 121.443Z" fill="#D9D9D9"/>
</mask>
<g mask="url(#mask4_41_2)">
<rect x="-80" y="-81" width="1024" height="512" rx="16" fill="url(#paint4_linear_41_2)" fill-opacity="0.85"/>
</g>
<mask id="mask5_41_2" style="mask-type:alpha" maskUnits="userSpaceOnUse" x="83" y="100" width="70" height="80">
<path d="M115.5 101.443C117.047 100.55 118.953 100.55 120.5 101.443L150.141 118.557C151.688 119.45 152.641 121.1 152.641 122.887V157.113C152.641 158.9 151.688 160.55 150.141 161.443L120.5 178.557C118.953 179.45 117.047 179.45 115.5 178.557L85.859 161.443C84.312 160.55 83.359 158.9 83.359 157.113V122.887C83.359 121.1 84.312 119.45 85.859 118.557L115.5 101.443Z" fill="#D9D9D9"/>
</mask>
<g mask="url(#mask5_41_2)">
<rect x="-80" y="-81" width="1024" height="512" rx="16" fill="url(#paint5_linear_41_2)" fill-opacity="0.85"/>
</g>
<mask id="mask6_41_2" style="mask-type:alpha" maskUnits="userSpaceOnUse" x="226" y="131" width="554" height="90">
<path opacity="0.9" d="M226.88 219V131.832H255.808C261.696 131.832 266.645 132.685 270.656 134.392C274.752 136.013 277.867 138.573 280 142.072C282.133 145.485 283.2 149.837 283.2 155.128C283.2 159.565 282.091 163.491 279.872 166.904C277.653 170.317 274.709 172.963 271.04 174.84C267.456 176.717 263.573 177.656 259.392 177.656L260.288 171C265.493 171 270.016 171.939 273.856 173.816C277.781 175.608 280.853 178.253 283.072 181.752C285.291 185.251 286.4 189.517 286.4 194.552C286.4 202.488 283.925 208.547 278.976 212.728C274.112 216.909 267.115 219 257.984 219H226.88ZM239.68 139.896V210.04L234.56 206.712H258.368C263.147 206.712 266.816 205.475 269.376 203C272.021 200.44 273.344 197.197 273.344 193.272C273.344 188.835 272.064 185.464 269.504 183.16C267.029 180.856 263.403 179.704 258.624 179.704H234.56V167.928H256.192C260.715 167.928 264.171 166.947 266.56 164.984C268.949 162.936 270.144 159.992 270.144 156.152C270.144 152.653 268.907 149.795 266.432 147.576C264.043 145.272 260.629 144.12 256.192 144.12H235.072L239.68 139.896ZM317.898 220.792C313.034 220.792 308.853 219.939 305.354 218.232C301.855 216.525 299.167 214.093 297.29 210.936C295.498 207.693 294.602 203.853 294.602 199.416C294.602 195.32 295.541 191.693 297.418 188.536C299.295 185.293 301.983 182.733 305.482 180.856C308.981 178.979 313.119 178.04 317.898 178.04C323.871 178.04 328.65 179.405 332.234 182.136C335.903 184.781 338.463 188.451 339.914 193.144H332.746V177.144C332.746 174.499 331.85 172.067 330.058 169.848C328.266 167.629 325.109 166.52 320.586 166.52C318.197 166.52 315.551 166.819 312.65 167.416C309.834 167.928 306.89 168.867 303.818 170.232L299.978 160.376C303.477 158.669 307.103 157.389 310.858 156.536C314.613 155.683 318.282 155.256 321.866 155.256C327.242 155.256 331.679 156.237 335.178 158.2C338.677 160.163 341.279 162.808 342.986 166.136C344.693 169.379 345.546 173.048 345.546 177.144V219H336.33L333.13 207.608L339.914 205.688C338.378 210.723 335.647 214.52 331.722 217.08C327.797 219.555 323.189 220.792 317.898 220.792ZM320.202 209.4C323.957 209.4 326.986 208.547 329.29 206.84C331.594 205.048 332.746 202.573 332.746 199.416C332.746 196.173 331.594 193.699 329.29 191.992C326.986 190.285 323.957 189.432 320.202 189.432C316.447 189.432 313.418 190.285 311.114 191.992C308.81 193.699 307.658 196.173 307.658 199.416C307.658 202.573 308.81 205.048 311.114 206.84C313.418 208.547 316.447 209.4 320.202 209.4ZM380.785 220.28C376.433 220.28 372.124 219.256 367.857 217.208C363.676 215.16 360.22 211.661 357.489 206.712L367.217 200.312C369.606 203.469 371.868 205.773 374.001 207.224C376.134 208.589 378.908 209.272 382.321 209.272C385.052 209.272 387.142 208.589 388.593 207.224C390.129 205.773 390.897 204.024 390.897 201.976C390.897 200.611 390.513 199.416 389.745 198.392C389.062 197.368 387.825 196.429 386.033 195.576C384.241 194.637 381.681 193.741 378.353 192.888C372.209 191.267 367.473 189.133 364.145 186.488C360.817 183.843 359.153 179.661 359.153 173.944C359.153 170.531 360.006 167.416 361.713 164.6C363.42 161.784 365.894 159.523 369.137 157.816C372.38 156.109 376.22 155.256 380.657 155.256C385.948 155.256 390.47 156.365 394.225 158.584C397.98 160.717 400.924 163.277 403.057 166.264L393.201 173.56C392.006 172.024 390.257 170.531 387.953 169.08C385.649 167.544 382.748 166.776 379.249 166.776C377.116 166.776 375.153 167.373 373.361 168.568C371.569 169.763 370.673 171.427 370.673 173.56C370.673 175.693 371.484 177.443 373.105 178.808C374.812 180.088 377.884 181.24 382.321 182.264C389.83 184.056 395.164 186.403 398.321 189.304C401.478 192.12 403.057 195.875 403.057 200.568C403.057 204.664 401.99 208.205 399.857 211.192C397.809 214.093 395.078 216.355 391.665 217.976C388.337 219.512 384.71 220.28 380.785 220.28ZM433.023 220.792C428.159 220.792 423.978 219.939 420.479 218.232C416.98 216.525 414.292 214.093 412.415 210.936C410.623 207.693 409.727 203.853 409.727 199.416C409.727 195.32 410.666 191.693 412.543 188.536C414.42 185.293 417.108 182.733 420.607 180.856C424.106 178.979 428.244 178.04 433.023 178.04C438.996 178.04 443.775 179.405 447.359 182.136C451.028 184.781 453.588 188.451 455.039 193.144H447.871V177.144C447.871 174.499 446.975 172.067 445.183 169.848C443.391 167.629 440.234 166.52 435.711 166.52C433.322 166.52 430.676 166.819 427.775 167.416C424.959 167.928 422.015 168.867 418.943 170.232L415.103 160.376C418.602 158.669 422.228 157.389 425.983 156.536C429.738 155.683 433.407 155.256 436.991 155.256C442.367 155.256 446.804 156.237 450.303 158.2C453.802 160.163 456.404 162.808 458.111 166.136C459.818 169.379 460.671 173.048 460.671 177.144V219H451.455L448.255 207.608L455.039 205.688C453.503 210.723 450.772 214.52 446.847 217.08C442.922 219.555 438.314 220.792 433.023 220.792ZM435.327 209.4C439.082 209.4 442.111 208.547 444.415 206.84C446.719 205.048 447.871 202.573 447.871 199.416C447.871 196.173 446.719 193.699 444.415 191.992C442.111 190.285 439.082 189.432 435.327 189.432C431.572 189.432 428.543 190.285 426.239 191.992C423.935 193.699 422.783 196.173 422.783 199.416C422.783 202.573 423.935 205.048 426.239 206.84C428.543 208.547 431.572 209.4 435.327 209.4ZM486.084 219.64C483.865 219.64 481.903 219.128 480.196 218.104C478.489 216.995 477.124 215.416 476.1 213.368C475.161 211.32 474.692 208.803 474.692 205.816V131.832H487.236V201.336C487.236 203.981 487.876 205.773 489.156 206.712C490.521 207.651 492.057 208.12 493.764 208.12V218.36C492.655 218.787 491.46 219.085 490.18 219.256C488.9 219.512 487.535 219.64 486.084 219.64ZM527.482 220.152C522.021 220.152 517.669 218.573 514.426 215.416C511.269 212.173 509.69 207.181 509.69 200.44V157.304V156.536L512.122 142.456H522.49V200.696C522.49 203.085 523.087 204.877 524.282 206.072C525.562 207.267 527.141 207.864 529.018 207.864C530.469 207.864 531.749 207.779 532.858 207.608C533.967 207.437 534.949 207.224 535.802 206.968V218.872C534.693 219.213 533.455 219.512 532.09 219.768C530.81 220.024 529.274 220.152 527.482 220.152ZM500.09 168.312V156.536H535.802V168.312H500.09ZM563.626 178.808H581.674C587.306 178.808 591.829 177.272 595.242 174.2C598.655 171.128 600.362 166.861 600.362 161.4C600.362 155.597 598.655 151.245 595.242 148.344C591.914 145.357 587.434 143.864 581.802 143.864H563.626L565.93 140.92V219H553.13V131.832H583.978C589.951 131.832 595.157 133.155 599.594 135.8C604.031 138.445 607.487 141.987 609.962 146.424C612.437 150.861 613.674 155.853 613.674 161.4C613.674 166.861 612.437 171.853 609.962 176.376C607.487 180.813 603.989 184.355 599.466 187C595.029 189.56 589.823 190.84 583.85 190.84H563.626V178.808ZM641.273 220.792C636.409 220.792 632.228 219.939 628.729 218.232C625.23 216.525 622.542 214.093 620.665 210.936C618.873 207.693 617.977 203.853 617.977 199.416C617.977 195.32 618.916 191.693 620.793 188.536C622.67 185.293 625.358 182.733 628.857 180.856C632.356 178.979 636.494 178.04 641.273 178.04C647.246 178.04 652.025 179.405 655.609 182.136C659.278 184.781 661.838 188.451 663.289 193.144H656.121V177.144C656.121 174.499 655.225 172.067 653.433 169.848C651.641 167.629 648.484 166.52 643.961 166.52C641.572 166.52 638.926 166.819 636.025 167.416C633.209 167.928 630.265 168.867 627.193 170.232L623.353 160.376C626.852 158.669 630.478 157.389 634.233 156.536C637.988 155.683 641.657 155.256 645.241 155.256C650.617 155.256 655.054 156.237 658.553 158.2C662.052 160.163 664.654 162.808 666.361 166.136C668.068 169.379 668.921 173.048 668.921 177.144V219H659.705L656.505 207.608L663.289 205.688C661.753 210.723 659.022 214.52 655.097 217.08C651.172 219.555 646.564 220.792 641.273 220.792ZM643.577 209.4C647.332 209.4 650.361 208.547 652.665 206.84C654.969 205.048 656.121 202.573 656.121 199.416C656.121 196.173 654.969 193.699 652.665 191.992C650.361 190.285 647.332 189.432 643.577 189.432C639.822 189.432 636.793 190.285 634.489 191.992C632.185 193.699 631.033 196.173 631.033 199.416C631.033 202.573 632.185 205.048 634.489 206.84C636.793 208.547 639.822 209.4 643.577 209.4ZM704.16 220.28C699.808 220.28 695.499 219.256 691.232 217.208C687.051 215.16 683.595 211.661 680.864 206.712L690.592 200.312C692.981 203.469 695.243 205.773 697.376 207.224C699.509 208.589 702.283 209.272 705.696 209.272C708.427 209.272 710.517 208.589 711.968 207.224C713.504 205.773 714.272 204.024 714.272 201.976C714.272 200.611 713.888 199.416 713.12 198.392C712.437 197.368 711.2 196.429 709.408 195.576C707.616 194.637 705.056 193.741 701.728 192.888C695.584 191.267 690.848 189.133 687.52 186.488C684.192 183.843 682.528 179.661 682.528 173.944C682.528 170.531 683.381 167.416 685.088 164.6C686.795 161.784 689.269 159.523 692.512 157.816C695.755 156.109 699.595 155.256 704.032 155.256C709.323 155.256 713.845 156.365 717.6 158.584C721.355 160.717 724.299 163.277 726.432 166.264L716.576 173.56C715.381 172.024 713.632 170.531 711.328 169.08C709.024 167.544 706.123 166.776 702.624 166.776C700.491 166.776 698.528 167.373 696.736 168.568C694.944 169.763 694.048 171.427 694.048 173.56C694.048 175.693 694.859 177.443 696.48 178.808C698.187 180.088 701.259 181.24 705.696 182.264C713.205 184.056 718.539 186.403 721.696 189.304C724.853 192.12 726.432 195.875 726.432 200.568C726.432 204.664 725.365 208.205 723.232 211.192C721.184 214.093 718.453 216.355 715.04 217.976C711.712 219.512 708.085 220.28 704.16 220.28ZM757.535 220.28C753.183 220.28 748.874 219.256 744.607 217.208C740.426 215.16 736.97 211.661 734.239 206.712L743.967 200.312C746.356 203.469 748.618 205.773 750.751 207.224C752.884 208.589 755.658 209.272 759.071 209.272C761.802 209.272 763.892 208.589 765.343 207.224C766.879 205.773 767.647 204.024 767.647 201.976C767.647 200.611 767.263 199.416 766.495 198.392C765.812 197.368 764.575 196.429 762.783 195.576C760.991 194.637 758.431 193.741 755.103 192.888C748.959 191.267 744.223 189.133 740.895 186.488C737.567 183.843 735.903 179.661 735.903 173.944C735.903 170.531 736.756 167.416 738.463 164.6C740.17 161.784 742.644 159.523 745.887 157.816C749.13 156.109 752.97 155.256 757.407 155.256C762.698 155.256 767.22 156.365 770.975 158.584C774.73 160.717 777.674 163.277 779.807 166.264L769.951 173.56C768.756 172.024 767.007 170.531 764.703 169.08C762.399 167.544 759.498 166.776 755.999 166.776C753.866 166.776 751.903 167.373 750.111 168.568C748.319 169.763 747.423 171.427 747.423 173.56C747.423 175.693 748.234 177.443 749.855 178.808C751.562 180.088 754.634 181.24 759.071 182.264C766.58 184.056 771.914 186.403 775.071 189.304C778.228 192.12 779.807 195.875 779.807 200.568C779.807 204.664 778.74 208.205 776.607 211.192C774.559 214.093 771.828 216.355 768.415 217.976C765.087 219.512 761.46 220.28 757.535 220.28Z" fill="#66FF00"/>
</mask>
<g mask="url(#mask6_41_2)">
<rect x="-80" y="-81" width="1024" height="512" rx="16" fill="url(#paint6_linear_41_2)" fill-opacity="0.85"/>
</g>
<path d="M658.08 94.36C657.232 94.36 656.408 94.232 655.608 93.976C654.824 93.72 654.104 93.304 653.448 92.728C652.792 92.136 652.24 91.336 651.792 90.328L653.784 89.2C654.344 90.208 654.96 90.936 655.632 91.384C656.304 91.832 657.144 92.056 658.152 92.056C659.128 92.056 659.864 91.84 660.36 91.408C660.872 90.976 661.128 90.384 661.128 89.632C661.128 89.184 661.016 88.792 660.792 88.456C660.584 88.12 660.208 87.808 659.664 87.52C659.12 87.232 658.352 86.968 657.36 86.728C656.112 86.408 655.136 86.016 654.432 85.552C653.744 85.072 653.264 84.528 652.992 83.92C652.72 83.296 652.584 82.624 652.584 81.904C652.584 81.008 652.792 80.232 653.208 79.576C653.624 78.904 654.224 78.384 655.008 78.016C655.792 77.632 656.72 77.44 657.792 77.44C659.072 77.44 660.128 77.688 660.96 78.184C661.792 78.664 662.496 79.328 663.072 80.176L661.056 81.472C660.56 80.864 660.04 80.432 659.496 80.176C658.968 79.904 658.4 79.768 657.792 79.768C656.864 79.768 656.152 79.952 655.656 80.32C655.176 80.688 654.936 81.216 654.936 81.904C654.936 82.496 655.16 83.008 655.608 83.44C656.072 83.872 656.968 84.248 658.296 84.568C659.64 84.904 660.688 85.304 661.44 85.768C662.208 86.216 662.744 86.76 663.048 87.4C663.368 88.024 663.528 88.776 663.528 89.656C663.528 90.536 663.304 91.328 662.856 92.032C662.408 92.736 661.776 93.304 660.96 93.736C660.144 94.152 659.184 94.36 658.08 94.36ZM666.353 94V77.656H671.729C673.297 77.656 674.697 77.984 675.929 78.64C677.161 79.296 678.129 80.24 678.833 81.472C679.537 82.688 679.889 84.152 679.889 85.864C679.889 87.608 679.529 89.088 678.809 90.304C678.105 91.504 677.137 92.424 675.905 93.064C674.673 93.688 673.273 94 671.705 94H666.353ZM668.753 92.272L668.033 91.744H671.585C672.657 91.744 673.625 91.536 674.489 91.12C675.369 90.688 676.073 90.04 676.601 89.176C677.129 88.312 677.393 87.208 677.393 85.864C677.393 84.568 677.129 83.48 676.601 82.6C676.089 81.704 675.393 81.032 674.513 80.584C673.649 80.136 672.681 79.912 671.609 79.912H667.865L668.753 79.048V92.272ZM682.642 94V77.656H685.042V94H682.642ZM691.906 94L684.154 85.984V85.72L692.002 77.656H695.002L686.338 86.56L686.578 85.144L695.146 94H691.906ZM703.932 94V81.136C703.932 80.288 704.068 79.592 704.34 79.048C704.612 78.504 704.996 78.104 705.492 77.848C705.988 77.576 706.58 77.44 707.268 77.44C707.588 77.44 707.876 77.464 708.132 77.512C708.388 77.56 708.62 77.616 708.828 77.68V79.912C708.652 79.88 708.476 79.856 708.3 79.84C708.14 79.808 707.948 79.792 707.724 79.792C707.372 79.792 707.052 79.912 706.764 80.152C706.476 80.376 706.332 80.768 706.332 81.328V94H703.932ZM708.588 84.496H702.132V82.288H708.588V84.496ZM715.754 94.24C714.57 94.24 713.522 93.992 712.61 93.496C711.714 92.984 711.018 92.272 710.521 91.36C710.025 90.448 709.778 89.384 709.778 88.168C709.778 86.936 710.025 85.864 710.521 84.952C711.018 84.04 711.714 83.328 712.61 82.816C713.522 82.304 714.57 82.048 715.754 82.048C716.954 82.048 718.002 82.304 718.898 82.816C719.794 83.328 720.49 84.04 720.986 84.952C721.498 85.864 721.754 86.936 721.754 88.168C721.754 89.384 721.498 90.448 720.986 91.36C720.49 92.272 719.794 92.984 718.898 93.496C718.002 93.992 716.954 94.24 715.754 94.24ZM715.754 91.936C716.826 91.936 717.682 91.592 718.322 90.904C718.978 90.2 719.306 89.288 719.306 88.168C719.306 87.032 718.978 86.112 718.322 85.408C717.682 84.704 716.826 84.352 715.754 84.352C714.698 84.352 713.842 84.704 713.186 85.408C712.546 86.096 712.226 87.008 712.226 88.144C712.226 89.28 712.546 90.2 713.186 90.904C713.842 91.592 714.698 91.936 715.754 91.936ZM725.844 82.288L726.42 85.456V94H724.02V82.288H725.844ZM726.06 86.44L725.484 86.176V84.424L725.7 84.16C725.86 83.872 726.108 83.568 726.444 83.248C726.796 82.912 727.204 82.632 727.668 82.408C728.132 82.168 728.604 82.048 729.084 82.048C729.324 82.048 729.548 82.064 729.756 82.096C729.98 82.128 730.148 82.184 730.26 82.264V84.424H729.516C728.428 84.424 727.636 84.592 727.14 84.928C726.644 85.248 726.284 85.752 726.06 86.44ZM656.952 121.104C657.736 121.104 658.328 120.872 658.728 120.408C659.144 119.928 659.352 119.28 659.352 118.464V106.656H661.8V118.464C661.8 119.44 661.6 120.296 661.2 121.032C660.8 121.768 660.232 122.344 659.496 122.76C658.776 123.16 657.936 123.36 656.976 123.36C656 123.36 655.144 123.176 654.408 122.808C653.688 122.44 653.128 121.896 652.728 121.176C652.328 120.456 652.128 119.576 652.128 118.536V117.552H654.576V118.392C654.576 119.336 654.784 120.024 655.2 120.456C655.616 120.888 656.2 121.104 656.952 121.104ZM668.559 123.336C667.647 123.336 666.863 123.176 666.207 122.856C665.551 122.536 665.047 122.08 664.695 121.488C664.359 120.88 664.191 120.16 664.191 119.328C664.191 118.56 664.367 117.88 664.719 117.288C665.071 116.68 665.575 116.2 666.231 115.848C666.887 115.496 667.663 115.32 668.559 115.32C669.679 115.32 670.575 115.576 671.247 116.088C671.935 116.584 672.415 117.272 672.687 118.152H671.343V115.152C671.343 114.656 671.175 114.2 670.839 113.784C670.503 113.368 669.911 113.16 669.063 113.16C668.615 113.16 668.119 113.216 667.575 113.328C667.047 113.424 666.495 113.6 665.919 113.856L665.199 112.008C665.855 111.688 666.535 111.448 667.239 111.288C667.943 111.128 668.631 111.048 669.303 111.048C670.311 111.048 671.143 111.232 671.799 111.6C672.455 111.968 672.943 112.464 673.263 113.088C673.583 113.696 673.743 114.384 673.743 115.152V123H672.015L671.415 120.864L672.687 120.504C672.399 121.448 671.887 122.16 671.151 122.64C670.415 123.104 669.551 123.336 668.559 123.336ZM668.991 121.2C669.695 121.2 670.263 121.04 670.695 120.72C671.127 120.384 671.343 119.92 671.343 119.328C671.343 118.72 671.127 118.256 670.695 117.936C670.263 117.616 669.695 117.456 668.991 117.456C668.287 117.456 667.719 117.616 667.287 117.936C666.855 118.256 666.639 118.72 666.639 119.328C666.639 119.92 666.855 120.384 667.287 120.72C667.719 121.04 668.287 121.2 668.991 121.2ZM686.713 111.288L682.297 123H680.017L675.361 111.288H678.025L681.289 120.384H680.977L684.097 111.288H686.713ZM691.692 123.336C690.78 123.336 689.996 123.176 689.34 122.856C688.684 122.536 688.18 122.08 687.828 121.488C687.492 120.88 687.324 120.16 687.324 119.328C687.324 118.56 687.5 117.88 687.852 117.288C688.204 116.68 688.708 116.2 689.364 115.848C690.02 115.496 690.796 115.32 691.692 115.32C692.812 115.32 693.708 115.576 694.38 116.088C695.068 116.584 695.548 117.272 695.82 118.152H694.476V115.152C694.476 114.656 694.308 114.2 693.972 113.784C693.636 113.368 693.044 113.16 692.196 113.16C691.748 113.16 691.252 113.216 690.708 113.328C690.18 113.424 689.628 113.6 689.052 113.856L688.332 112.008C688.988 111.688 689.668 111.448 690.372 111.288C691.076 111.128 691.764 111.048 692.436 111.048C693.444 111.048 694.276 111.232 694.932 111.6C695.588 111.968 696.076 112.464 696.396 113.088C696.716 113.696 696.876 114.384 696.876 115.152V123H695.148L694.548 120.864L695.82 120.504C695.532 121.448 695.02 122.16 694.284 122.64C693.548 123.104 692.684 123.336 691.692 123.336ZM692.124 121.2C692.828 121.2 693.396 121.04 693.828 120.72C694.26 120.384 694.476 119.92 694.476 119.328C694.476 118.72 694.26 118.256 693.828 117.936C693.396 117.616 692.828 117.456 692.124 117.456C691.42 117.456 690.852 117.616 690.42 117.936C689.988 118.256 689.772 118.72 689.772 119.328C689.772 119.92 689.988 120.384 690.42 120.72C690.852 121.04 691.42 121.2 692.124 121.2ZM705.4 123.36C704.552 123.36 703.728 123.232 702.928 122.976C702.144 122.72 701.424 122.304 700.768 121.728C700.112 121.136 699.56 120.336 699.112 119.328L701.104 118.2C701.664 119.208 702.28 119.936 702.952 120.384C703.624 120.832 704.464 121.056 705.472 121.056C706.448 121.056 707.184 120.84 707.68 120.408C708.192 119.976 708.448 119.384 708.448 118.632C708.448 118.184 708.336 117.792 708.112 117.456C707.904 117.12 707.528 116.808 706.984 116.52C706.44 116.232 705.672 115.968 704.68 115.728C703.432 115.408 702.456 115.016 701.752 114.552C701.064 114.072 700.584 113.528 700.312 112.92C700.04 112.296 699.904 111.624 699.904 110.904C699.904 110.008 700.112 109.232 700.528 108.576C700.944 107.904 701.544 107.384 702.328 107.016C703.112 106.632 704.04 106.44 705.112 106.44C706.392 106.44 707.448 106.688 708.28 107.184C709.112 107.664 709.816 108.328 710.392 109.176L708.376 110.472C707.88 109.864 707.36 109.432 706.816 109.176C706.288 108.904 705.72 108.768 705.112 108.768C704.184 108.768 703.472 108.952 702.976 109.32C702.496 109.688 702.256 110.216 702.256 110.904C702.256 111.496 702.48 112.008 702.928 112.44C703.392 112.872 704.288 113.248 705.616 113.568C706.96 113.904 708.008 114.304 708.76 114.768C709.528 115.216 710.064 115.76 710.368 116.4C710.688 117.024 710.848 117.776 710.848 118.656C710.848 119.536 710.624 120.328 710.176 121.032C709.728 121.736 709.096 122.304 708.28 122.736C707.464 123.152 706.504 123.36 705.4 123.36ZM717.86 123.24C716.66 123.24 715.62 122.984 714.74 122.472C713.86 121.944 713.18 121.224 712.7 120.312C712.22 119.4 711.98 118.344 711.98 117.144C711.98 115.944 712.22 114.888 712.7 113.976C713.18 113.064 713.86 112.352 714.74 111.84C715.62 111.312 716.66 111.048 717.86 111.048C718.996 111.048 720.028 111.36 720.956 111.984C721.884 112.592 722.556 113.408 722.972 114.432L720.692 115.392C720.436 114.72 720.052 114.216 719.54 113.88C719.028 113.528 718.444 113.352 717.788 113.352C716.828 113.352 716.028 113.688 715.388 114.36C714.748 115.016 714.428 115.944 714.428 117.144C714.428 118.344 714.748 119.28 715.388 119.952C716.028 120.608 716.828 120.936 717.788 120.936C718.444 120.936 719.028 120.768 719.54 120.432C720.052 120.08 720.436 119.568 720.692 118.896L722.972 119.856C722.54 120.88 721.86 121.704 720.932 122.328C720.02 122.936 718.996 123.24 717.86 123.24ZM726.735 111.288L727.311 114.456V123H724.911V111.288H726.735ZM726.951 115.44L726.375 115.176V113.424L726.591 113.16C726.751 112.872 726.999 112.568 727.335 112.248C727.687 111.912 728.095 111.632 728.559 111.408C729.023 111.168 729.495 111.048 729.975 111.048C730.215 111.048 730.439 111.064 730.647 111.096C730.871 111.128 731.039 111.184 731.151 111.264V113.424H730.407C729.319 113.424 728.527 113.592 728.031 113.928C727.535 114.248 727.175 114.752 726.951 115.44ZM735.632 123H733.232V111.288H735.632V123ZM732.872 107.688C732.872 107.224 733.008 106.848 733.28 106.56C733.568 106.256 733.952 106.104 734.432 106.104C734.896 106.104 735.272 106.256 735.56 106.56C735.848 106.848 735.992 107.224 735.992 107.688C735.992 108.136 735.848 108.512 735.56 108.816C735.272 109.104 734.896 109.248 734.432 109.248C733.952 109.248 733.568 109.104 733.28 108.816C733.008 108.512 732.872 108.136 732.872 107.688ZM744.691 123.24C743.635 123.24 742.715 122.992 741.931 122.496C741.147 121.984 740.531 121.272 740.083 120.36C739.651 119.448 739.435 118.384 739.435 117.168C739.435 115.936 739.651 114.864 740.083 113.952C740.531 113.04 741.147 112.328 741.931 111.816C742.715 111.304 743.635 111.048 744.691 111.048C745.779 111.048 746.723 111.304 747.523 111.816C748.339 112.328 748.971 113.04 749.419 113.952C749.867 114.864 750.091 115.936 750.091 117.168C750.091 118.384 749.867 119.448 749.419 120.36C748.971 121.272 748.339 121.984 747.523 122.496C746.723 122.992 745.779 123.24 744.691 123.24ZM738.763 127.56V111.288H740.587L741.163 113.64H740.923V120.312H741.163V127.56H738.763ZM744.331 121.176C745.323 121.176 746.123 120.808 746.731 120.072C747.339 119.336 747.643 118.368 747.643 117.168C747.643 115.952 747.339 114.976 746.731 114.24C746.123 113.488 745.323 113.112 744.331 113.112C743.355 113.112 742.563 113.48 741.955 114.216C741.347 114.952 741.043 115.928 741.043 117.144C741.043 118.36 741.347 119.336 741.955 120.072C742.563 120.808 743.355 121.176 744.331 121.176ZM756.301 123.216C755.277 123.216 754.461 122.92 753.853 122.328C753.261 121.72 752.965 120.784 752.965 119.52V111.432V111.288L753.421 108.648H755.365V119.568C755.365 120.016 755.477 120.352 755.701 120.576C755.941 120.8 756.237 120.912 756.589 120.912C756.861 120.912 757.101 120.896 757.309 120.864C757.517 120.832 757.701 120.792 757.861 120.744V122.976C757.653 123.04 757.421 123.096 757.165 123.144C756.925 123.192 756.637 123.216 756.301 123.216ZM751.165 113.496V111.288H757.861V113.496H751.165Z" fill="#ADADAD"/>
<g clip-path="url(#clip0_41_2)">
<path d="M140 201H200V261H140V201Z" fill="#F7DF1E"/>
<path d="M155.776 251.14L160.368 248.362C161.254 249.932 162.059 251.261 163.992 251.261C165.845 251.261 167.013 250.536 167.013 247.717V228.546H172.652V247.797C172.652 253.637 169.228 256.295 164.234 256.295C159.723 256.295 157.105 253.959 155.776 251.14" fill="black"/>
<path d="M175.714 250.536L180.305 247.878C181.514 249.852 183.085 251.302 185.864 251.302C188.2 251.302 189.69 250.133 189.69 248.522C189.69 246.589 188.159 245.904 185.582 244.777L184.172 244.172C180.104 242.441 177.406 240.266 177.406 235.675C177.406 231.446 180.628 228.223 185.662 228.223C189.247 228.223 191.824 229.472 193.677 232.734L189.287 235.554C188.32 233.822 187.273 233.137 185.662 233.137C184.011 233.137 182.964 234.184 182.964 235.554C182.964 237.245 184.011 237.93 186.427 238.977L187.837 239.581C192.63 241.636 195.328 243.73 195.328 248.442C195.328 253.517 191.341 256.296 185.984 256.296C180.749 256.296 177.365 253.799 175.714 250.536Z" fill="black"/>
</g>
<defs>
<linearGradient id="paint0_linear_41_2" x1="-165" y1="-150.5" x2="820.802" y2="519.277" gradientUnits="userSpaceOnUse">
<stop offset="0.119221" stop-color="#485466"/>
<stop offset="0.151498" stop-color="#485466"/>
<stop offset="0.691591" stop-color="#55647D"/>
</linearGradient>
<linearGradient id="paint1_linear_41_2" x1="-165" y1="-150.5" x2="820.802" y2="519.277" gradientUnits="userSpaceOnUse">
<stop offset="0.119221" stop-color="#485466"/>
<stop offset="0.151498" stop-color="#485466"/>
<stop offset="0.691591" stop-color="#1A4892"/>
</linearGradient>
<linearGradient id="paint2_linear_41_2" x1="-165" y1="-150.5" x2="820.802" y2="519.277" gradientUnits="userSpaceOnUse">
<stop offset="0.119221" stop-color="#485466"/>
<stop offset="0.151498" stop-color="#485466"/>
<stop offset="0.691591" stop-color="#155DD3"/>
</linearGradient>
<linearGradient id="paint3_linear_41_2" x1="-165" y1="-150.5" x2="820.802" y2="519.277" gradientUnits="userSpaceOnUse">
<stop offset="0.119221" stop-color="#6B88B8"/>
<stop offset="0.264423" stop-color="#5A76A2"/>
<stop offset="0.432692" stop-color="#155DD3"/>
</linearGradient>
<linearGradient id="paint4_linear_41_2" x1="-165" y1="-150.5" x2="820.802" y2="519.277" gradientUnits="userSpaceOnUse">
<stop offset="0.119221" stop-color="#485466"/>
<stop offset="0.151498" stop-color="#485466"/>
<stop offset="0.691591" stop-color="#155DD3"/>
</linearGradient>
<linearGradient id="paint5_linear_41_2" x1="-165" y1="-150.5" x2="820.802" y2="519.277" gradientUnits="userSpaceOnUse">
<stop offset="0.119221" stop-color="#485466"/>
<stop offset="0.151498" stop-color="#485466"/>
<stop offset="0.691591" stop-color="#155DD3"/>
</linearGradient>
<linearGradient id="paint6_linear_41_2" x1="-165" y1="-150.5" x2="820.802" y2="519.277" gradientUnits="userSpaceOnUse">
<stop offset="0.119221" stop-color="#485466"/>
<stop offset="0.151498" stop-color="#485466"/>
<stop offset="0.691591" stop-color="#1A4892"/>
</linearGradient>
<clipPath id="clip0_41_2">
<rect width="60" height="60" fill="white" transform="translate(140 201)"/>
</clipPath>
</defs>
</svg>
